<svg xmlns="http://www.w3.org/2000/svg" viewBox="0 0 512 512" width="512" height="512">
	<style>
		tspan { white-space:pre }
		.shp0 { fill: #000000 } 
	</style>
	<g id="Layer">
		<g id="Layer">
			<g id="Layer">
				<path id="Layer" class="shp0" d="M53.33 64C47.43 64 42.67 59.23 42.67 53.33C42.67 47.43 47.43 42.67 53.33 42.67C59.23 42.67 64 47.43 64 53.33C64 59.23 59.23 64 53.33 64Z" />
				<path id="Layer" class="shp0" d="M96 64C90.1 64 85.33 59.23 85.33 53.33C85.33 47.43 90.1 42.67 96 42.67C101.9 42.67 106.67 47.43 106.67 53.33C106.67 59.23 101.9 64 96 64Z" />
				<path id="Layer" class="shp0" d="M138.67 64C132.77 64 128 59.23 128 53.33C128 47.43 132.77 42.67 138.67 42.67C144.57 42.67 149.33 47.43 149.33 53.33C149.33 59.23 144.57 64 138.67 64Z" />
				<path id="Layer" class="shp0" d="M188.17 301.15L134 256L188.17 210.85C192.69 207.08 193.3 200.35 189.53 195.83C185.75 191.33 179.05 190.69 174.5 194.48L110.5 247.81C108.07 249.83 106.67 252.83 106.67 256C106.67 259.17 108.07 262.17 110.5 264.19L174.5 317.52C176.5 319.19 178.92 320 181.32 320C184.39 320 187.42 318.69 189.53 316.17C193.3 311.65 192.69 304.92 188.17 301.15Z" />
				<path id="Layer" class="shp0" d="M279.8 316.17C281.92 318.69 284.95 320 288.01 320C290.42 320 292.83 319.19 294.83 317.52L358.83 264.19C361.26 262.17 362.67 259.17 362.67 256C362.67 252.83 361.26 249.83 358.83 247.81L294.83 194.48C290.3 190.69 283.59 191.33 279.8 195.83C276.03 200.35 276.65 207.08 281.17 210.85L335.33 256L281.17 301.15C276.65 304.92 276.03 311.65 279.8 316.17Z" />
				<path id="Layer" class="shp0" d="M270.87 171.52C265.48 169.23 259.18 171.71 256.87 177.13L192.87 326.46C190.54 331.87 193.05 338.15 198.47 340.48C199.83 341.06 201.26 341.33 202.67 341.33C206.8 341.33 210.74 338.92 212.47 334.87L276.47 185.54C278.79 180.13 276.28 173.85 270.87 171.52Z" />
				<path id="Layer" fill-rule="evenodd" class="shp0" d="M512 373.33L512 416C512 420.9 508.67 425.17 503.93 426.35L483.49 431.46L494.32 449.5C496.85 453.71 496.18 459.08 492.72 462.54L462.55 492.71C459.09 496.17 453.72 496.83 449.52 494.31L431.46 483.48L426.34 503.92C425.16 508.67 420.9 512 416 512L373.34 512C368.44 512 364.18 508.67 362.99 503.92L357.88 483.48L339.81 494.31C335.6 496.81 330.23 496.17 326.78 492.71L303.41 469.33L42.67 469.33C19.14 469.33 0 450.19 0 426.67L0 42.67C0 19.15 19.14 0 42.67 0L426.67 0C450.2 0 469.33 19.15 469.33 42.67L469.33 303.41L492.72 326.79C496.18 330.25 496.84 335.62 494.32 339.83L483.49 357.88L503.93 362.98C508.67 364.17 512 368.44 512 373.33ZM21.33 85.33L448 85.33L448 42.67C448 30.9 438.43 21.33 426.67 21.33L42.67 21.33C30.91 21.33 21.33 30.9 21.33 42.67L21.33 85.33ZM305.84 431.46L285.4 426.35C280.66 425.17 277.33 420.9 277.33 416L277.33 373.33C277.33 368.44 280.66 364.17 285.4 362.98L305.84 357.88L295.01 339.83C292.49 335.63 293.15 330.25 296.61 326.79L326.78 296.63C330.23 293.15 335.6 292.5 339.81 295.02L357.87 305.86L362.99 285.42C364.18 280.67 368.44 277.33 373.33 277.33L416 277.33C420.89 277.33 425.15 280.67 426.34 285.42L431.46 305.86L448 295.93L448 106.67L21.33 106.67L21.33 426.67C21.33 438.44 30.91 448 42.67 448L295.91 448L305.84 431.46ZM490.67 381.67L472.34 377.08C468.87 376.21 466.05 373.65 464.87 370.25C463.92 367.52 462.88 364.85 461.62 362.27C460.04 359.02 460.21 355.21 462.06 352.1L471.74 335.98L453.36 317.6L437.22 327.27C434.13 329.15 430.3 329.27 427.06 327.73C424.47 326.46 421.79 325.42 419.05 324.46C415.68 323.27 413.13 320.46 412.26 316.98L407.68 298.67L381.66 298.67L377.07 316.98C376.21 320.46 373.66 323.27 370.28 324.46C367.54 325.42 364.87 326.46 362.27 327.73C359.01 329.27 355.21 329.13 352.12 327.27L335.98 317.6L317.6 335.98L327.27 352.1C329.13 355.21 329.3 359.02 327.72 362.27C326.46 364.85 325.42 367.52 324.47 370.25C323.29 373.65 320.47 376.21 316.99 377.08L298.67 381.67L298.67 407.67L316.99 412.25C320.47 413.13 323.28 415.69 324.47 419.08C325.42 421.81 326.46 424.48 327.72 427.06C329.3 430.31 329.13 434.13 327.27 437.23L317.6 453.35L335.98 471.73L352.12 462.06C355.21 460.19 359.03 460.04 362.27 461.6C364.87 462.88 367.54 463.92 370.28 464.88C373.66 466.06 376.21 468.88 377.07 472.35L381.66 490.67L407.68 490.67L412.26 472.35C413.13 468.88 415.68 466.06 419.05 464.88C421.79 463.92 424.47 462.88 427.06 461.6C430.29 460.02 434.13 460.19 437.22 462.06L453.36 471.73L471.74 453.35L462.06 437.23C460.21 434.13 460.04 430.31 461.62 427.06C462.88 424.48 463.92 421.81 464.87 419.08C466.05 415.69 468.87 413.13 472.34 412.25L490.67 407.67L490.67 381.67Z" />
				<path id="Layer" fill-rule="evenodd" class="shp0" d="M448 394.67C448 424.08 424.07 448 394.67 448C365.26 448 341.33 424.08 341.33 394.67C341.33 365.25 365.26 341.33 394.67 341.33C424.07 341.33 448 365.25 448 394.67ZM426.67 394.67C426.67 377.02 412.31 362.67 394.67 362.67C377.02 362.67 362.67 377.02 362.67 394.67C362.67 412.31 377.02 426.67 394.67 426.67C412.31 426.67 426.67 412.31 426.67 394.67Z" />
			</g>
		</g>
	</g>
	<g id="Layer">
	</g>
	<g id="Layer">
	</g>
	<g id="Layer">
	</g>
	<g id="Layer">
	</g>
	<g id="Layer">
	</g>
	<g id="Layer">
	</g>
	<g id="Layer">
	</g>
	<g id="Layer">
	</g>
	<g id="Layer">
	</g>
	<g id="Layer">
	</g>
	<g id="Layer">
	</g>
	<g id="Layer">
	</g>
	<g id="Layer">
	</g>
	<g id="Layer">
	</g>
	<g id="Layer">
	</g>
</svg>