<svg xmlns="http://www.w3.org/2000/svg" viewBox="0 0 512 512" width="512" height="512">
	<style>
		tspan { white-space:pre }
		.shp0 { fill: #000000 } 
	</style>
	<g id="Layer">
		<g id="Layer">
			<path id="Layer" fill-rule="evenodd" class="shp0" d="M512 53.33L512 458.67C511.96 488.11 488.11 511.96 458.67 512L53.33 512C23.89 511.96 0.04 488.11 0 458.67L0 53.33C0.04 23.89 23.89 0.04 53.33 0L458.67 0C488.11 0.04 511.96 23.89 512 53.33ZM490.67 458.67L490.67 53.33C490.67 35.66 476.34 21.33 458.67 21.33L53.33 21.33C35.66 21.33 21.33 35.66 21.33 53.33L21.33 458.67C21.33 476.34 35.66 490.67 53.33 490.67L458.67 490.67C476.34 490.67 490.67 476.34 490.67 458.67L490.67 458.67Z" />
		</g>
	</g>
	<g id="Layer">
		<g id="Layer">
			<path id="Layer" class="shp0" d="M42.67 85.33L202.67 85.33L202.67 106.67L42.67 106.67L42.67 85.33Z" />
		</g>
	</g>
	<g id="Layer">
		<g id="Layer">
			<path id="Layer" class="shp0" d="M53.33 42.67L74.67 42.67L74.67 64L53.33 64L53.33 42.67Z" />
		</g>
	</g>
	<g id="Layer">
		<g id="Layer">
			<path id="Layer" class="shp0" d="M96 42.67L117.33 42.67L117.33 64L96 64L96 42.67Z" />
		</g>
	</g>
	<g id="Layer">
		<g id="Layer">
			<path id="Layer" class="shp0" d="M437.33 42.67L458.67 42.67L458.67 64L437.33 64L437.33 42.67Z" />
		</g>
	</g>
	<g id="Layer">
		<g id="Layer">
			<path id="Layer" fill-rule="evenodd" class="shp0" d="M469.33 192L469.33 426.67C469.33 438.45 459.78 448 448 448L64 448C52.22 448 42.67 438.45 42.67 426.67L42.67 192C42.67 180.22 52.22 170.67 64 170.67L448 170.67C459.78 170.67 469.33 180.22 469.33 192ZM448 192L64 192L64 426.67L448 426.67L448 192Z" />
		</g>
	</g>
	<g id="Layer">
		<g id="Layer">
			<path id="Layer" class="shp0" d="M263.54 88.46C259.38 84.3 252.62 84.3 248.46 88.46L163.13 173.79L178.21 188.88L256 111.08L333.46 188.54L348.54 173.46L263.54 88.46Z" />
		</g>
	</g>
	<g id="Layer">
		<g id="Layer">
			<path id="Layer" class="shp0" d="M309.33 85.33L458.67 85.33L458.67 106.67L309.33 106.67L309.33 85.33Z" />
		</g>
	</g>
	<g id="Layer">
		<g id="Layer">
			<path id="Layer" class="shp0" d="M224 352L224 330.67L202.67 330.67L202.67 352C202.73 352.63 202.73 353.27 202.67 353.91C202.14 359.27 197.37 363.19 192 362.67L170.67 362.67C170.03 362.73 169.39 362.73 168.76 362.67C163.39 362.14 159.47 357.36 160 352L160 266.67C159.94 266.03 159.94 265.39 160 264.76C160.53 259.4 165.3 255.47 170.67 256L192 256C192.63 255.94 193.27 255.94 193.91 256C199.27 256.53 203.19 261.3 202.67 266.67L202.67 288L224 288L224 266.67C224.02 266.06 224.02 265.45 224 264.85C223.5 247.68 209.17 234.16 192 234.67L170.67 234.67C170.06 234.65 169.45 234.65 168.85 234.67C151.68 235.17 138.16 249.5 138.67 266.67L138.67 352C138.65 352.61 138.65 353.21 138.67 353.82C139.17 370.99 153.5 384.5 170.67 384L192 384C192.61 384.02 193.21 384.02 193.82 384C210.99 383.5 224.5 369.17 224 352Z" />
		</g>
	</g>
	<g id="Layer">
		<g id="Layer">
			<path id="Layer" class="shp0" d="M266.67 234.67L288 234.67L288 384L266.67 384L266.67 234.67Z" />
		</g>
	</g>
	<g id="Layer">
		<g id="Layer">
			<path id="Layer" class="shp0" d="M320 234.67L341.33 234.67L341.33 384L320 384L320 234.67Z" />
		</g>
	</g>
	<g id="Layer">
		<g id="Layer">
			<path id="Layer" class="shp0" d="M245.33 266.67L362.67 266.67L362.67 288L245.33 288L245.33 266.67Z" />
		</g>
	</g>
	<g id="Layer">
		<g id="Layer">
			<path id="Layer" class="shp0" d="M245.33 330.67L362.67 330.67L362.67 352L245.33 352L245.33 330.67Z" />
		</g>
	</g>
	<g id="Layer">
	</g>
	<g id="Layer">
	</g>
	<g id="Layer">
	</g>
	<g id="Layer">
	</g>
	<g id="Layer">
	</g>
	<g id="Layer">
	</g>
	<g id="Layer">
	</g>
	<g id="Layer">
	</g>
	<g id="Layer">
	</g>
	<g id="Layer">
	</g>
	<g id="Layer">
	</g>
	<g id="Layer">
	</g>
	<g id="Layer">
	</g>
	<g id="Layer">
	</g>
	<g id="Layer">
	</g>
</svg>