<svg xmlns="http://www.w3.org/2000/svg" viewBox="0 0 480 480" width="480" height="480">
	<style>
		tspan { white-space:pre }
		.shp0 { fill: #000000 } 
	</style>
	<g id="Layer">
		<g id="Layer">
			<path id="Layer" fill-rule="evenodd" class="shp0" d="M480 256L480 440C480 453.23 469.23 464 456 464L368 464C354.77 464 344 453.23 344 440L344 352L298.47 352L314.2 409.69C316.18 416.96 314.7 424.58 310.12 430.57C305.54 436.56 298.59 440 291.05 440L224 440C224 453.23 213.23 464 200 464L24 464C10.77 464 0 453.23 0 440L0 200C0 186.77 10.77 176 24 176L24 56C24 33.94 41.94 16 64 16L416 16C438.06 16 456 33.94 456 56L456 232C469.23 232 480 242.77 480 256ZM208 424L16 424L16 440C16 444.41 19.59 448 24 448L200 448C204.41 448 208 444.41 208 440L208 424ZM208 232L16 232L16 408L208 408L208 232ZM208 200C208 195.59 204.41 192 200 192L24 192C19.59 192 16 195.59 16 200L16 216L208 216L208 200ZM297.16 408L224 408L224 424L291.05 424C293.57 424 295.88 422.86 297.41 420.86C298.94 418.86 299.43 416.32 298.77 413.9L297.16 408ZM292.8 392L281.89 352L224 352L224 392L292.8 392ZM344 288L224 288L224 336L344 336L344 288ZM368 232L440 232L440 56C440 42.77 429.23 32 416 32L64 32C50.77 32 40 42.77 40 56L40 176L200 176C213.23 176 224 186.77 224 200L224 272L344 272L344 256C344 242.77 354.77 232 368 232ZM464 424L360 424L360 440C360 444.41 363.59 448 368 448L456 448C460.41 448 464 444.41 464 440L464 424ZM464 288L360 288L360 408L464 408L464 288ZM464 256C464 251.59 460.41 248 456 248L368 248C363.59 248 360 251.59 360 256L360 272L464 272L464 256Z" />
		</g>
	</g>
	<g id="Layer">
		<g id="Layer">
			<path id="Layer" class="shp0" d="M42.34 346.34L74.34 314.33L85.65 325.65L53.65 357.65L42.34 346.34Z" />
		</g>
	</g>
	<g id="Layer">
		<g id="Layer">
			<path id="Layer" class="shp0" d="M74.34 370.34L170.34 274.34L181.65 285.65L85.65 381.65L74.34 370.34Z" />
		</g>
	</g>
	<g id="Layer">
		<g id="Layer">
			<path id="Layer" class="shp0" d="M90.34 298.35L138.33 250.35L149.65 261.66L101.65 309.66L90.34 298.35Z" />
		</g>
	</g>
	<g id="Layer">
		<g id="Layer">
			<path id="Layer" class="shp0" d="M378.33 346.35L418.32 306.35L429.63 317.67L389.64 357.66L378.33 346.35Z" />
		</g>
	</g>
	<g id="Layer">
		<g id="Layer">
			<path id="Layer" class="shp0" d="M394.32 378.38L434.32 338.39L445.63 349.7L405.64 389.7L394.32 378.38Z" />
		</g>
	</g>
	<g id="Layer">
		<g id="Layer">
			<path id="Layer" class="shp0" d="M210.33 154.34L258.33 106.35L269.64 117.66L221.65 165.66L210.33 154.34Z" />
		</g>
	</g>
	<g id="Layer">
		<g id="Layer">
			<path id="Layer" class="shp0" d="M282.34 138.34L330.34 90.35L341.65 101.66L293.65 149.66L282.34 138.34Z" />
		</g>
	</g>
	<g id="Layer">
		<g id="Layer">
			<path id="Layer" class="shp0" d="M234.33 186.35L266.33 154.35L277.65 165.67L245.65 197.67L234.33 186.35Z" />
		</g>
	</g>
	<g id="Layer">
		<g id="Layer">
			<path id="Layer" class="shp0" d="M274.29 90.45L306.37 58.37L317.68 69.68L285.6 101.76L274.29 90.45Z" />
		</g>
	</g>
	<g id="Layer">
		<g id="Layer">
			<path id="Layer" class="shp0" d="M56 48L72 48L72 64L56 64L56 48Z" />
		</g>
	</g>
	<g id="Layer">
		<g id="Layer">
			<path id="Layer" class="shp0" d="M88 48L104 48L104 64L88 64L88 48Z" />
		</g>
	</g>
	<g id="Layer">
		<g id="Layer">
			<path id="Layer" class="shp0" d="M120 48L136 48L136 64L120 64L120 48Z" />
		</g>
	</g>
	<g id="Layer">
	</g>
	<g id="Layer">
	</g>
	<g id="Layer">
	</g>
	<g id="Layer">
	</g>
	<g id="Layer">
	</g>
	<g id="Layer">
	</g>
	<g id="Layer">
	</g>
	<g id="Layer">
	</g>
	<g id="Layer">
	</g>
	<g id="Layer">
	</g>
	<g id="Layer">
	</g>
	<g id="Layer">
	</g>
	<g id="Layer">
	</g>
	<g id="Layer">
	</g>
	<g id="Layer">
	</g>
</svg>