<svg xmlns="http://www.w3.org/2000/svg" viewBox="0 0 512 512" width="512" height="512">
	<style>
		tspan { white-space:pre }
		.shp0 { fill: #000000 } 
	</style>
	<g id="Layer">
		<g id="Layer">
			<g id="Layer">
				<path id="Layer" fill-rule="evenodd" class="shp0" d="M512 68.57L512 344.33C512 370.99 490.32 392.68 463.66 392.68L326.67 392.68C327.9 419.34 332.67 445.19 340.9 469.75L374.36 469.75C380.44 469.75 385.38 474.68 385.38 480.76C385.38 486.84 380.44 491.77 374.36 491.77L137.63 491.77C131.55 491.77 126.62 486.84 126.62 480.76C126.62 474.68 131.55 469.75 137.63 469.75L171.1 469.75C179.32 445.19 184.09 419.34 185.33 392.68L48.34 392.68C21.68 392.68 0 370.99 0 344.33L0 68.57C0 41.91 21.68 20.23 48.34 20.23L463.66 20.23C490.32 20.23 512 41.91 512 68.57ZM22.02 320.03L489.98 320.03L489.98 68.57C489.98 54.06 478.17 42.25 463.66 42.25L48.34 42.25C33.83 42.25 22.02 54.06 22.02 68.57L22.02 320.03ZM317.76 469.75C310.16 445.04 305.76 419.22 304.62 392.68L207.38 392.68C206.24 419.22 201.84 445.05 194.24 469.75L317.76 469.75ZM489.98 342.05L22.02 342.05L22.02 344.33C22.02 358.85 33.83 370.66 48.34 370.66L463.66 370.66C478.17 370.66 489.98 358.85 489.98 344.33L489.98 344.33L489.98 342.05Z" />
				<path id="Layer" class="shp0" d="M402.82 275.99L165.73 275.99C159.65 275.99 154.72 280.92 154.72 287C154.72 293.08 159.65 298.01 165.73 298.01L402.82 298.01C408.9 298.01 413.83 293.08 413.83 287C413.83 280.92 408.9 275.99 402.82 275.99Z" />
				<path id="Layer" class="shp0" d="M110.95 275.99L109.18 275.99C103.1 275.99 98.17 280.92 98.17 287C98.17 293.08 103.1 298.01 109.18 298.01L110.95 298.01C117.03 298.01 121.97 293.08 121.97 287C121.97 280.92 117.04 275.99 110.95 275.99Z" />
				<path id="Layer" class="shp0" d="M320.97 111.32L385.87 166.81L320.97 222.3C316.34 226.26 315.8 233.21 319.75 237.83C321.93 240.38 325.02 241.68 328.13 241.68C330.66 241.68 333.2 240.81 335.28 239.04L409.97 175.18C412.42 173.09 413.83 170.03 413.83 166.81C413.83 163.59 412.42 160.54 409.97 158.44L335.27 94.58C330.65 90.63 323.7 91.17 319.75 95.8C315.8 100.42 316.34 107.37 320.97 111.32Z" />
				<path id="Layer" class="shp0" d="M102.03 175.18L176.73 239.04C178.8 240.82 181.34 241.68 183.87 241.68C186.98 241.68 190.07 240.38 192.25 237.83C196.2 233.21 195.66 226.26 191.03 222.3L126.13 166.81L191.03 111.32C195.66 107.37 196.2 100.42 192.25 95.79C188.3 91.17 181.35 90.63 176.72 94.58L102.03 158.44C99.58 160.53 98.17 163.59 98.17 166.81C98.17 170.03 99.58 173.09 102.03 175.18Z" />
				<path id="Layer" class="shp0" d="M224.51 263.54C225.65 263.91 226.8 264.08 227.93 264.08C232.56 264.08 236.88 261.13 238.39 256.47L294.55 83.97C296.43 78.18 293.27 71.97 287.49 70.09C281.7 68.2 275.49 71.37 273.61 77.15L217.45 249.66C215.57 255.44 218.73 261.65 224.51 263.54Z" />
			</g>
		</g>
	</g>
	<g id="Layer">
	</g>
	<g id="Layer">
	</g>
	<g id="Layer">
	</g>
	<g id="Layer">
	</g>
	<g id="Layer">
	</g>
	<g id="Layer">
	</g>
	<g id="Layer">
	</g>
	<g id="Layer">
	</g>
	<g id="Layer">
	</g>
	<g id="Layer">
	</g>
	<g id="Layer">
	</g>
	<g id="Layer">
	</g>
	<g id="Layer">
	</g>
	<g id="Layer">
	</g>
	<g id="Layer">
	</g>
</svg>