<svg xmlns="http://www.w3.org/2000/svg" viewBox="0 0 349 349" width="349" height="349">
	<style>
		tspan { white-space:pre }
		.shp0 { fill: #000000 } 
	</style>
	<g id="Layer">
		<g id="Layer">
			<g id="Layer">
				<path id="Layer" class="shp0" d="M340.27 275.08L286.52 221.32C275.81 210.66 258.08 210.98 247 222.07L219.92 249.14C218.21 248.2 216.44 247.21 214.57 246.17C197.47 236.69 174.07 223.71 149.43 199.06C124.73 174.36 111.73 150.91 102.23 133.8C101.22 131.99 100.26 130.24 99.31 128.58L117.49 110.43L126.42 101.48C137.52 90.38 137.83 72.66 127.15 61.96L73.39 8.19C62.71 -2.49 44.97 -2.16 33.87 8.94L18.72 24.18L19.14 24.59C14.06 31.07 9.81 38.54 6.65 46.61C3.74 54.28 1.93 61.6 1.1 68.94C-6 127.78 20.89 181.56 93.87 254.54C194.74 355.41 276.03 347.79 279.54 347.42C287.18 346.5 294.5 344.68 301.94 341.79C309.93 338.67 317.4 334.43 323.88 329.36L324.21 329.65L339.56 314.63C350.63 303.53 350.95 285.8 340.27 275.08Z" />
			</g>
		</g>
	</g>
	<g id="Layer">
	</g>
	<g id="Layer">
	</g>
	<g id="Layer">
	</g>
	<g id="Layer">
	</g>
	<g id="Layer">
	</g>
	<g id="Layer">
	</g>
	<g id="Layer">
	</g>
	<g id="Layer">
	</g>
	<g id="Layer">
	</g>
	<g id="Layer">
	</g>
	<g id="Layer">
	</g>
	<g id="Layer">
	</g>
	<g id="Layer">
	</g>
	<g id="Layer">
	</g>
	<g id="Layer">
	</g>
</svg>